<?xml version="1.0" encoding="utf-8"?>
<!-- Generator: Adobe Illustrator 19.1.0, SVG Export Plug-In . SVG Version: 6.00 Build 0)  -->
<svg version="1.1" id="Layer_1" xmlns="http://www.w3.org/2000/svg" xmlns:xlink="http://www.w3.org/1999/xlink" x="0px" y="0px"
	 viewBox="-227 288.5 504 219" style="enable-background:new -227 288.5 504 219;" xml:space="preserve">



<style type="text/css">


	.st0{fill:#929497;}
	.st1{font-family:'Raleway';}
	.st2{font-size:7.8618px;}
	.st3{fill:none;stroke:#D0D2D3;stroke-width:0.5;stroke-miterlimit:10;stroke-dasharray:2,2;}
	.st4{fill:#8BC5EB;}
	.st5{fill:#231F20;}
	.st6{font-family:'Raleway-Medium';}

	@keyframes fadeIn { from { opacity:0; } to { opacity:1; } }

	.fade-in {
	    opacity:0;
		  animation:fadeIn ease-in 1;
		  animation-fill-mode:forwards;
		  animation-duration:2s;
	}

	.fade-in.bar {
		animation-delay: .1s;
	}



</style>
<text transform="matrix(0.9935 0 0 1 -153.0396 492.8066)" class="st0 st1 st2">0</text>
<text transform="matrix(0.9935 0 0 1 -79.5757 492.8066)" class="st0 st1 st2">1000</text>
<text transform="matrix(0.9935 0 0 1 3.1626 492.8066)" class="st0 st1 st2">2000</text>
<text transform="matrix(0.9935 0 0 1 83.0649 492.8066)" class="st0 st1 st2">3000</text>
<text transform="matrix(0.9935 0 0 1 164.1557 492.8066)" class="st0 st1 st2">4000</text>
<text transform="matrix(0.9935 0 0 1 239.0971 492.8066)" class="st0 st1 st2">5000</text>

<line class="st3" x1="-150.3" y1="484.1" x2="-150.3" y2="296.8"/>
<line class="st3" x1="-69.2" y1="484.1" x2="-69.2" y2="296.8"/>
<line class="st3" x1="12" y1="484.1" x2="12" y2="296.8"/>
<line class="st3" x1="93.1" y1="484.1" x2="93.1" y2="296.8"/>
<line class="st3" x1="174.3" y1="484.1" x2="174.3" y2="296.8"/>
<line class="st3" x1="255.4" y1="484.1" x2="255.4" y2="296.8"/>
<line class="st3" x1="-150.3" y1="484.1" x2="-150.3" y2="296.8"/>

<rect x="-150.3" y="306.5" class="st4 fade-in bar" width="119.5" height="6.3"/>
<rect x="-150.3" y="326.2" class="st4 fade-in bar" width="143.1" height="6.3"/>
<rect x="-150.3" y="345.8" class="st4 fade-in bar" width="145.8" height="6.3"/>
<rect x="-150.3" y="366.1" class="st4 fade-in bar" width="205.6" height="6.3"/>
<rect x="-150.4" y="386.2" class="st4 fade-in bar" width="212.5" height="6.3"/>
<rect x="-150.3" y="406.4" class="st4 fade-in bar" width="219.9" height="6.3"/>
<rect x="-150.3" y="426.5" class="st4 fade-in bar" width="235.8" height="6.3"/>
<rect x="-150.3" y="446.6" class="st4 fade-in bar" width="260.3" height="6.3"/>
<rect x="-150.3" y="466.9" class="st4 fade-in bar" width="378.1" height="6.3"/>

<text transform="matrix(1 0 0 1 -197.6719 473.7119)"><tspan x="0" y="0" class="st5 st6 st2">NE</tspan><tspan x="10.8" y="0" class="st5 st6 st2">W</tspan><tspan x="18.8" y="0" class="st5 st6 st2"> </tspan><tspan x="20.5" y="0" class="st5 st6 st2">Y</tspan><tspan x="25.2" y="0" class="st5 st6 st2">ORK</tspan></text>
<text transform="matrix(1 0 0 1 -189.4551 452.4819)"><tspan x="0" y="0" class="st5 st6 st2">DET</tspan><tspan x="15.3" y="0" class="st5 st6 st2">R</tspan><tspan x="20.5" y="0" class="st5 st6 st2">OIT</tspan></text>
<text transform="matrix(1 0 0 1 -192.0327 432.3281)"><tspan x="0" y="0" class="st5 st6 st2">S</tspan><tspan x="4.8" y="0" class="st5 st6 st2">T</tspan><tspan x="9.1" y="0" class="st5 st6 st2">. </tspan><tspan x="12.6" y="0" class="st5 st6 st2">L</tspan><tspan x="17" y="0" class="st5 st6 st2">OUIS</tspan></text>

<g>
<text transform="matrix(1 0 0 1 -191.8765 412.2339)" class="st5 st6 st2">CHICAGO</text>
</g>
<g>
	<text transform="matrix(1 0 0 1 -179.7285 392.02)" class="st5 st6 st2">MIAMI</text>
</g>
<text transform="matrix(1 0 0 1 -189.9248 370.543)"><tspan x="0" y="0" class="st5 st6 st2">SE</tspan><tspan x="9.6" y="0" class="st5 st6 st2">A</tspan><tspan x="14.4" y="0" class="st5 st6 st2">TTLE</tspan></text>
<text transform="matrix(1 0 0 1 -202.9043 351.6704)" class="st5 st6 st2">CLEVELAND</text>
<text transform="matrix(1 0 0 1 -215.4639 332.0229)"><tspan x="0" y="0" class="st5 st6 st2">S</tspan><tspan x="4.7" y="0" class="st5 st6 st2">A</tspan><tspan x="10" y="0" class="st5 st6 st2">L</tspan><tspan x="13.8" y="0" class="st5 st6 st2">T</tspan><tspan x="18.5" y="0" class="st5 st6 st2"> LAKE CITY</tspan></text>
<text transform="matrix(1 0 0 1 -199.7261 312.3745)"><tspan x="0" y="0" class="st5 st6 st2">N</tspan><tspan x="6.1" y="0" class="st5 st6 st2">A</tspan><tspan x="11.3" y="0" class="st5 st6 st2">SHVILLE</tspan></text>
</svg>
