<?xml version="1.0" encoding="utf-8"?>
<!-- Generator: Adobe Illustrator 19.1.0, SVG Export Plug-In . SVG Version: 6.00 Build 0)  -->
<svg version="1.1" id="Layer_1" xmlns="http://www.w3.org/2000/svg" xmlns:xlink="http://www.w3.org/1999/xlink" x="0px" y="0px"
	 viewBox="0 0 504 513" style="enable-background:new 0 0 504 513;" xml:space="preserve">
<style type="text/css">
	.st0{fill:#929497;}
	.st1{font-family:'Raleway';}
	.st2{font-size:7.6607px;}
	.st3{fill:none;stroke:#D0D2D3;stroke-width:0.5;stroke-miterlimit:10;stroke-dasharray:2,2;}
	.st4{fill:#8BC5EB;}
	.st5{fill:none;stroke:#8BC5EB;stroke-width:0.5;stroke-miterlimit:10;}
	.st6{fill:#231F20;}
	.st7{font-family:'Raleway-Medium';}
	.st8{clip-path:url(#SVGID_2_);fill:#8BC5EB;}
</style>

<text transform="matrix(1 0 0 1 76.1613 492.9812)" class="st0 st1 st2">0</text>
<text transform="matrix(1 0 0 1 147.7815 492.9812)" class="st0 st1 st2">1000</text>
<text transform="matrix(1 0 0 1 228.9309 492.9812)" class="st0 st1 st2">2000</text>
<text transform="matrix(1 0 0 1 307.3 492.9812)" class="st0 st1 st2">3000</text>
<text transform="matrix(1 0 0 1 386.8332 492.9812)" class="st0 st1 st2">4000</text>
<text transform="matrix(1 0 0 1 460.3381 492.9812)" class="st0 st1 st2">5000</text>

<line class="st3" x1="77.9" y1="485.4" x2="475.8" y2="485.4"/>
<line class="st3" x1="77.9" y1="485.4" x2="77.9" y2="1.5"/>
<line class="st3" x1="157.5" y1="485.4" x2="157.5" y2="1.5"/>
<line class="st3" x1="237.1" y1="485.4" x2="237.1" y2="1.5"/>
<line class="st3" x1="316.7" y1="485.4" x2="316.7" y2="1.5"/>
<line class="st3" x1="396.3" y1="485.4" x2="396.3" y2="1.5"/>
<line class="st3" x1="475.8" y1="485.4" x2="475.8" y2="1.5"/>
<line class="st3" x1="77.9" y1="485.4" x2="77.9" y2="1.5"/>
<line class="st3" x1="77.9" y1="473.9" x2="475.8" y2="473.9"/>
<line class="st3" x1="77.9" y1="450.8" x2="475.8" y2="450.8"/>
<line class="st3" x1="77.9" y1="427.8" x2="475.8" y2="427.8"/>
<line class="st3" x1="77.9" y1="404.7" x2="475.8" y2="404.7"/>
<line class="st3" x1="77.9" y1="381.7" x2="475.8" y2="381.7"/>
<line class="st3" x1="77.9" y1="358.6" x2="475.8" y2="358.6"/>
<line class="st3" x1="77.9" y1="335.6" x2="475.8" y2="335.6"/>
<line class="st3" x1="77.9" y1="312.5" x2="475.8" y2="312.5"/>
<line class="st3" x1="77.9" y1="289.5" x2="475.8" y2="289.5"/>
<line class="st3" x1="77.9" y1="266.5" x2="475.8" y2="266.5"/>
<line class="st3" x1="77.9" y1="243.4" x2="475.8" y2="243.4"/>
<line class="st3" x1="77.9" y1="220.4" x2="475.8" y2="220.4"/>
<line class="st3" x1="77.9" y1="197.3" x2="475.8" y2="197.3"/>
<line class="st3" x1="77.9" y1="174.3" x2="475.8" y2="174.3"/>
<line class="st3" x1="77.9" y1="151.2" x2="475.8" y2="151.2"/>
<line class="st3" x1="77.9" y1="128.2" x2="475.8" y2="128.2"/>
<line class="st3" x1="77.9" y1="105.2" x2="475.8" y2="105.2"/>
<line class="st3" x1="77.9" y1="82.1" x2="475.8" y2="82.1"/>
<line class="st3" x1="77.9" y1="59.1" x2="475.8" y2="59.1"/>
<line class="st3" x1="77.9" y1="36" x2="475.8" y2="36"/>
<line class="st3" x1="77.9" y1="13" x2="475.8" y2="13"/>

<rect x="77.9" y="11.1" class="st4" width="104.4" height="4"/>
<rect x="77.9" y="34.1" class="st4" width="117.2" height="4"/>
<rect x="77.9" y="57.1" class="st4" width="140.4" height="4"/>
<rect x="77.9" y="80.2" class="st4" width="143" height="4"/>
<rect x="77.9" y="103.2" class="st4" width="145.9" height="4"/>
<rect x="77.9" y="126.3" class="st4" width="167" height="4"/>
<rect x="77.9" y="149.3" class="st4" width="193.9" height="4"/>
<rect x="77.9" y="172.4" class="st4" width="199.9" height="4"/>
<rect x="77.9" y="194.4" class="st4" width="201.3" height="4"/>
<rect x="77.9" y="218.5" class="st4" width="201.7" height="4"/>
<rect x="77.9" y="241.5" class="st4" width="207.2" height="4"/>
<rect x="77.9" y="264.5" class="st4" width="208.4" height="4"/>
<rect x="77.9" y="287.6" class="st4" width="214.8" height="4"/>
<rect x="77.9" y="310.6" class="st4" width="215.7" height="4"/>
<rect x="77.9" y="333.7" class="st4" width="217.6" height="4"/>
<rect x="77.9" y="356.7" class="st4" width="231.3" height="4"/>
<rect x="77.9" y="380.8" class="st4" width="248.9" height="4"/>
<rect x="77.9" y="402.8" class="st4" width="255.3" height="4"/>
<rect x="77.9" y="425.8" class="st4" width="267.6" height="4"/>
<rect x="77.9" y="448.9" class="st4" width="306" height="4"/>
<rect x="77.9" y="471.9" class="st4" width="370.8" height="4"/>


<text transform="matrix(1 0 0 1 31.4602 476.5007)"><tspan x="0" y="0" class="st6 st7 st2">NE</tspan><tspan x="10.6" y="0" class="st6 st7 st2">W</tspan><tspan x="18.3" y="0" class="st6 st7 st2"> </tspan><tspan x="20" y="0" class="st6 st7 st2">Y</tspan><tspan x="24.6" y="0" class="st6 st7 st2">ORK</tspan></text>
<text transform="matrix(1 0 0 1 37.4514 453.4578)" class="st6 st7 st2">BILLINGS</text>
<text transform="matrix(1 0 0 1 18.4904 430.4138)" class="st0 st1 st2">INDIANAPOLIS</text>
<text transform="matrix(1 0 0 1 39.5197 407.3708)"><tspan x="0" y="0" class="st6 st7 st2">DET</tspan><tspan x="14.9" y="0" class="st6 st7 st2">R</tspan><tspan x="19.9" y="0" class="st6 st7 st2">OIT</tspan></text>
<text transform="matrix(1 0 0 1 20.1838 384.3269)"><tspan x="0" y="0" class="st0 st1 st2">L</tspan><tspan x="4.2" y="0" class="st0 st1 st2">OS</tspan><tspan x="14.7" y="0" class="st0 st1 st2"> </tspan><tspan x="16.4" y="0" class="st0 st1 st2">ANGEL</tspan><tspan x="42.3" y="0" class="st0 st1 st2">E</tspan><tspan x="46.9" y="0" class="st0 st1 st2">S</tspan></text>
<text transform="matrix(1 0 0 1 36.9914 361.2839)"><tspan x="0" y="0" class="st6 st7 st2">S</tspan><tspan x="4.7" y="0" class="st6 st7 st2">T</tspan><tspan x="8.9" y="0" class="st6 st7 st2">. </tspan><tspan x="12.3" y="0" class="st6 st7 st2">L</tspan><tspan x="16.5" y="0" class="st6 st7 st2">OUIS</tspan></text>
<text transform="matrix(1 0 0 1 39.4807 338.241)"><tspan x="0" y="0" class="st0 st1 st2">HU</tspan><tspan x="11.4" y="0" class="st0 st1 st2">S</tspan><tspan x="16.1" y="0" class="st0 st1 st2">T</tspan><tspan x="20.5" y="0" class="st0 st1 st2">ON</tspan></text>
<text transform="matrix(1 0 0 1 37.1447 315.197)"><tspan x="0" y="0" class="st0 st1 st2">CHI</tspan><tspan x="12.8" y="0" class="st0 st1 st2">C</tspan><tspan x="18" y="0" class="st0 st1 st2">AGO</tspan></text>
<text transform="matrix(1 0 0 1 29.9895 292.1541)" class="st0 st1 st2">CHEYENNE</text>
<text transform="matrix(1 0 0 1 49.1487 269.1111)" class="st6 st7 st2">MIAMI</text>
<text transform="matrix(1 0 0 1 37.5891 246.0671)"><tspan x="0" y="0" class="st0 st1 st2">A</tspan><tspan x="4.7" y="0" class="st0 st1 st2">TLAN</tspan><tspan x="25" y="0" class="st0 st1 st2">T</tspan><tspan x="29.2" y="0" class="st0 st1 st2">A</tspan></text>
<text transform="matrix(1 0 0 1 39.0598 223.0232)"><tspan x="0" y="0" class="st6 st7 st2">SE</tspan><tspan x="9.4" y="0" class="st6 st7 st2">A</tspan><tspan x="14" y="0" class="st6 st7 st2">TTLE</tspan></text>
<text transform="matrix(1 0 0 1 17.6633 199.9792)" class="st0 st1 st2">PHILADELPHIA</text>
<text transform="matrix(1 0 0 1 40.6613 176.9363)" class="st0 st1 st2">DENVER</text>
<text transform="matrix(1 0 0 1 19.6779 153.8923)" class="st0 st1 st2">MINNEAPOLIS</text>
<text transform="matrix(1 0 0 1 38.2092 130.8494)" class="st0 st1 st2">PHOENIX</text>
<text transform="matrix(1 0 0 1 26.7414 107.8064)"><tspan x="0" y="0" class="st0 st1 st2">MI</tspan><tspan x="8.6" y="0" class="st0 st1 st2">L</tspan><tspan x="12.3" y="0" class="st0 st1 st2">W</tspan><tspan x="19.9" y="0" class="st0 st1 st2">A</tspan><tspan x="24.9" y="0" class="st0 st1 st2">UKEE</tspan></text>
<text transform="matrix(1 0 0 1 26.3274 84.7625)" class="st6 st7 st2">CLEVELAND</text>
<text transform="matrix(1 0 0 1 14.01 61.7195)"><tspan x="0" y="0" class="st6 st7 st2">S</tspan><tspan x="4.6" y="0" class="st6 st7 st2">A</tspan><tspan x="9.8" y="0" class="st6 st7 st2">L</tspan><tspan x="13.5" y="0" class="st6 st7 st2">T</tspan><tspan x="18" y="0" class="st6 st7 st2"> LAKE CITY</tspan></text>
<text transform="matrix(1 0 0 1 29.4455 38.6755)"><tspan x="0" y="0" class="st6 st7 st2">N</tspan><tspan x="5.9" y="0" class="st6 st7 st2">A</tspan><tspan x="11" y="0" class="st6 st7 st2">SHVILLE</tspan></text>
<text transform="matrix(1 0 0 1 28.9787 15.6326)"><tspan x="0" y="0" class="st0 st1 st2">B</tspan><tspan x="5" y="0" class="st0 st1 st2">A</tspan><tspan x="10.2" y="0" class="st0 st1 st2">L</tspan><tspan x="13.9" y="0" class="st0 st1 st2">TIMORE</tspan></text>

</svg>
