<?xml version="1.0" encoding="utf-8"?>
<!-- Generator: Adobe Illustrator 19.1.0, SVG Export Plug-In . SVG Version: 6.00 Build 0)  -->
<svg version="1.1" id="Layer_1" xmlns="http://www.w3.org/2000/svg" xmlns:xlink="http://www.w3.org/1999/xlink" x="0px" y="0px"
	 viewBox="-232.5 281.8 513.5 427" style="enable-background:new -232.5 281.8 513.5 427;" xml:space="preserve">
<style type="text/css">
	.st0{fill:#26A9E0;}
	.st1{fill:#8BC5EB;}
	.st2{fill:#6D6E70;}
	.st3{font-family:'Raleway';}
	.st4{font-size:6.2555px;}
	.st5{fill:none;stroke:#D0D2D3;stroke-width:0.5;stroke-linejoin:round;stroke-miterlimit:10;stroke-dasharray:2,2;}
	.st6{fill:none;stroke:#E6E7E8;stroke-width:1.06;stroke-linejoin:round;stroke-miterlimit:10;stroke-dasharray:2,2;}
	.st7{fill:none;stroke:#808184;stroke-width:2;stroke-linejoin:round;stroke-miterlimit:1;}
	.st8{font-family:'Raleway-Medium';}
	.st9{font-size:9.3036px;}
	.st10{fill:none;}

	@keyframes bounceIn {
	  0% {
		transform: scale(1);
	    opacity: 0;
	  }
	  60% {
	    transform: scale(1.5, 1.5);
	    opacity: .5;
	  }
	  100% {
	    transform: scale(1);
			opacity: 1;
	  }
	}

		.st0, .st1 {
		transform-origin: center;
		animation: bounceIn 2s;
		}

			@keyframes fadeIn { from { opacity:0; } to { opacity:1; } }

			.fade-in {
			    opacity:0;
				  animation:fadeIn ease-in 1;
				  animation-fill-mode:forwards;
				  animation-duration:2s;
			}

			.fade-in.bar {
				animation-delay: 2s;
			}




</style>
<circle class="st0" cx="47.6" cy="621.8" r="5"/>
<circle class="st0" cx="-138.7" cy="628.2" r="5"/>
<circle class="st1" cx="52.3" cy="540.4" r="5"/>
<circle class="st1" cx="-91.6" cy="520.9" r="5"/>
<circle class="st1" cx="-110.2" cy="516.9" r="5"/>
<circle class="st1" cx="-170.7" cy="504.1" r="5"/>
<circle class="st1" cx="-3.6" cy="472.7" r="5"/>
<circle class="st1" cx="-150.9" cy="441.3" r="5"/>
<g>
	<text transform="matrix(1 0 0 1 -203.5044 552.277)" class="st2 st3 st4">20</text>
</g>
<g>
	<text transform="matrix(1 0 0 1 -203.5044 431.7291)" class="st2 st3 st4">30</text>
</g>
<g>
	<text transform="matrix(1 0 0 1 -203.5044 312.3356)" class="st2 st3 st4">40</text>
</g>
<text transform="matrix(1 0 0 1 -90.4434 672.0817)" class="st2 st3 st4">5.0</text>
<g>
	<text transform="matrix(1 0 0 1 27.0146 670.8063)" class="st2 st3 st4">7.5</text>
</g>
<g>
	<text transform="matrix(1 0 0 1 144.6718 670.9674)" class="st2 st3 st4">10</text>
</g>
<g>
	<text transform="matrix(1 0 0 1 254.4277 671.944)" class="st2 st3 st4">12.5</text>
</g>
<line class="st5" x1="-190.4" y1="611.1" x2="270.5" y2="611.1"/>
<line class="st6" x1="-190.4" y1="490.5" x2="270.5" y2="490.5"/>
<line class="st5" x1="-190.4" y1="370" x2="270.5" y2="370"/>
<line class="st5" x1="-190.4" y1="309.6" x2="270.5" y2="309.6"/>
<line class="st5" x1="-27.5" y1="661.9" x2="-27.5" y2="286.4"/>
<line class="st5" x1="88.8" y1="661.9" x2="88.8" y2="286.4"/>
<line class="st5" x1="205.2" y1="661.9" x2="205.2" y2="286.4"/>
<line class="st5" x1="-190.4" y1="550.8" x2="270.5" y2="550.8"/>
<line class="st6" x1="-190.4" y1="430.3" x2="270.5" y2="430.3"/>
<line class="st5" x1="-85.7" y1="661.9" x2="-85.7" y2="286.4"/>
<line class="st5" x1="30.7" y1="661.9" x2="30.7" y2="286.4"/>
<line class="st5" x1="147.1" y1="661.9" x2="147.1" y2="286.4"/>
<line class="st5" x1="261.7" y1="668.6" x2="261.7" y2="293.1"/>
<line class="st5" x1="-143.9" y1="661.9" x2="-143.9" y2="286.4"/>
<polyline class="st7 fade-in bar" points="-169.5,569.4 -164.2,567.3 -158.9,565.1 -153.5,562.9 -148.3,560.7 -142.9,558.5 -137.6,556.3
	-132.4,554.1 -127,551.9 -121.8,549.7 -116.4,547.5 -111.1,545.4 -105.8,543.2 -100.5,541 -95.3,538.8 -89.9,536.6 -84.6,534.4
	-79.3,532.2 -74,530 -68.7,527.8 -63.4,525.6 -58,523.5 -52.8,521.3 -47.5,519.1 -42.2,516.9 -36.9,514.7 -31.5,512.5 -26.3,510.3
	-20.9,508.1 -15.7,505.9 -10.4,503.7 -5,501.6 0.2,499.4 5.6,497.2 10.8,495 16.2,492.8 21.5,490.6 26.7,488.4 32.1,486.2 37.3,484
	42.7,481.8 48,479.7 53.3,477.5 58.6,475.3 63.8,473.1 69.2,470.9 74.5,468.7 79.8,466.5 85.1,464.3 90.4,462.1 95.7,459.9
	101,457.8 106.3,455.6 111.6,453.4 116.9,451.2 122.2,449 127.6,446.8 132.8,444.6 138.1,442.4 143.4,440.2 148.7,438 154.1,435.9
	159.3,433.7 164.7,431.5 170,429.3 175.2,427.1 180.6,424.9 185.8,422.7 191.2,420.5 196.5,418.3 201.8,416.1 207.1,414
	212.3,411.8 217.7,409.6 223,407.4 228.3,405.2 233.6,403 238.9,400.8 244.2,398.6 249.6,396.4 "/>
<g>
	<text transform="matrix(1 0 0 1 72.9521 423.5348)" class="st8 st9">MIAMI</text>
</g>

<g>
	<text transform="matrix(1 0 0 1 27.915 456.1276)" class="st8 st9">S</text>
	<text transform="matrix(1 0 0 1 34.0781 456.1276)" class="st8 st9">T</text>
	<text transform="matrix(1 0 0 1 39.7773 456.1276)" class="st8 st9">. </text>
	<text transform="matrix(1 0 0 1 44.4287 456.1276)" class="st8 st9">L</text>
	<text transform="matrix(1 0 0 1 50.0097 456.1276)" class="st8 st9">OUIS</text>
</g>
<g>
	<text transform="matrix(1 0 0 1 -52.3228 358.3785)" class="st8 st9">CLEVELAND</text>
</g>
<g>
	<text transform="matrix(1 0 0 1 42.5722 635.9205)" class="st8 st9">BILLINGS</text>
</g>
<g>
	<text transform="matrix(1 0 0 1 89.6504 560.8551)" class="st8 st9">NE</text>
	<text transform="matrix(1 0 0 1 103.8388 560.8551)" class="st8 st9">W</text>
	<text transform="matrix(1 0 0 1 114.1884 560.8551)" class="st8 st9"> </text>
	<text transform="matrix(1 0 0 1 116.3984 560.8551)" class="st8 st9">Y</text>
	<text transform="matrix(1 0 0 1 122.5625 560.8551)" class="st8 st9">ORK</text>
</g>
<g>
	<text transform="matrix(1 0 0 1 -190.4644 544.3551)" class="st8 st9">S</text>
	<text transform="matrix(1 0 0 1 -184.3003 544.3551)" class="st8 st9">A</text>
	<text transform="matrix(1 0 0 1 -177.3228 544.3551)" class="st8 st9">L</text>
	<text transform="matrix(1 0 0 1 -172.438 544.3551)" class="st8 st9">T</text>
	<text transform="matrix(1 0 0 1 -166.3902 544.3551)" class="st8 st9"> LAKE CITY</text>
</g>
<g>
	<text transform="matrix(1 0 0 1 211.7216 311.7115)" class="st8 st9">DET</text>
	<text transform="matrix(1 0 0 1 231.6074 311.7115)" class="st8 st9">R</text>
	<text transform="matrix(1 0 0 1 238.3525 311.7115)" class="st8 st9">OIT</text>
</g>
<circle class="st1" cx="-59.3" cy="490.7" r="5"/>
<circle class="st1" cx="-54.7" cy="519.8" r="5"/>
<circle class="st1" cx="-35.8" cy="516" r="5"/>
<circle class="st1" cx="-26.9" cy="527" r="5"/>
<circle class="st1" cx="-87.3" cy="561.9" r="5"/>
<circle class="st1" cx="94.5" cy="546.8" r="5"/>
<circle class="st1" cx="-82.3" cy="645.1" r="5"/>
<circle class="st1" cx="-171" cy="562" r="5"/>
<circle class="st0" cx="-143.8" cy="551.6" r="5"/>
<circle class="st0" cx="80.2" cy="431.7" r="5"/>
<circle class="st0" cx="70.5" cy="463.2" r="5"/>
<rect x="-175.7" y="613.3" class="st10" width="42.6" height="9.5"/>
<text transform="matrix(1 0 0 1 -175.7325 620.0992)" class="st8 st9">SEATTLE</text>
<text transform="matrix(1 0 0 1 -63.5074 687.2281)" class="st8 st9">PERCENTAGE OF SALARY SPENT ON COLONOSCOPY</text>
<text transform="matrix(4.489659e-11 -1 1 4.489659e-11 -207.751 494.0944)" class="st8 st9">POVERTY RATE</text>
<circle class="st0" cx="1.1" cy="365.4" r="5"/>
<circle class="st0" cx="246.5" cy="319" r="5"/>
</svg>
